<svg width="18" height="16" viewBox="0 0 18 16" fill="none" xmlns="http://www.w3.org/2000/svg">
<path d="M17.3333 4.66667C17.3333 4.20833 16.9583 3.83333 16.5 3.83333H15.6667V2.16667C15.6667 1.25 14.9167 0.5 14 0.5H2.33332C1.41666 0.5 0.666656 1.25 0.666656 2.16667V13.8333C0.666656 14.75 1.41666 15.5 2.33332 15.5H14C14.9167 15.5 15.6667 14.75 15.6667 13.8333V12.1667H16.5C16.9583 12.1667 17.3333 11.7917 17.3333 11.3333C17.3333 10.875 16.9583 10.5 16.5 10.5H15.6667V8.83333H16.5C16.9583 8.83333 17.3333 8.45833 17.3333 8C17.3333 7.54167 16.9583 7.16667 16.5 7.16667H15.6667V5.5H16.5C16.9583 5.5 17.3333 5.125 17.3333 4.66667ZM13.1667 13.8333H3.16666C2.70832 13.8333 2.33332 13.4583 2.33332 13V3C2.33332 2.54167 2.70832 2.16667 3.16666 2.16667H13.1667C13.625 2.16667 14 2.54167 14 3V13C14 13.4583 13.625 13.8333 13.1667 13.8333ZM4.41666 8.83333H7.74999C7.98332 8.83333 8.16666 9.01667 8.16666 9.25V11.75C8.16666 11.9833 7.98332 12.1667 7.74999 12.1667H4.41666C4.18332 12.1667 3.99999 11.9833 3.99999 11.75V9.25C3.99999 9.01667 4.18332 8.83333 4.41666 8.83333ZM9.41666 3.83333H11.9167C12.15 3.83333 12.3333 4.01667 12.3333 4.25V5.91667C12.3333 6.15 12.15 6.33333 11.9167 6.33333H9.41666C9.18332 6.33333 8.99999 6.15 8.99999 5.91667V4.25C8.99999 4.01667 9.18332 3.83333 9.41666 3.83333ZM4.41666 3.83333H7.74999C7.98332 3.83333 8.16666 4.01667 8.16666 4.25V7.58333C8.16666 7.81667 7.98332 8 7.74999 8H4.41666C4.18332 8 3.99999 7.81667 3.99999 7.58333V4.25C3.99999 4.01667 4.18332 3.83333 4.41666 3.83333ZM9.41666 7.16667H11.9167C12.15 7.16667 12.3333 7.35 12.3333 7.58333V11.75C12.3333 11.9833 12.15 12.1667 11.9167 12.1667H9.41666C9.18332 12.1667 8.99999 11.9833 8.99999 11.75V7.58333C8.99999 7.35 9.18332 7.16667 9.41666 7.16667Z" fill="#484847"/>
</svg>
