<svg width="18" height="22" viewBox="0 0 18 22" fill="none" xmlns="http://www.w3.org/2000/svg">
<path fill-rule="evenodd" clip-rule="evenodd" d="M12.2942 0.437319C13.3576 0.288123 14.4335 0.765238 15.5268 1.89379L15.528 1.89509C16.6249 3.03318 17.1243 4.18768 17.0494 5.36356C16.977 6.49981 16.3766 7.46152 15.692 8.25507M15.692 8.25507L8.21245 16.9408C8.00159 17.1927 7.71767 17.406 7.44852 17.5639C7.1759 17.7238 6.86056 17.8607 6.56453 17.9184L6.55997 17.9193L3.62607 18.4691C2.9146 18.6037 2.23236 18.4086 1.74636 17.903C1.26104 17.398 1.04658 16.6617 1.12603 15.8772L1.12626 15.8749L1.46497 12.6209C1.50431 12.2972 1.61388 11.9469 1.74304 11.643C1.87174 11.3402 2.04734 11.0192 2.25514 10.7765L2.25648 10.775L9.7397 2.08495C10.4247 1.29108 11.2665 0.581492 12.2942 0.437319M10.7331 3.11562C10.7329 3.11575 10.7332 3.11548 10.7331 3.11562L3.25164 11.8035C3.25148 11.8037 3.25179 11.8033 3.25164 11.8035C3.17692 11.891 3.07429 12.0602 2.98214 12.277C2.89167 12.4898 2.83733 12.6868 2.82104 12.8133L2.48488 16.0428C2.48485 16.0432 2.48481 16.0435 2.48478 16.0439C2.44603 16.4288 2.55507 16.6771 2.68716 16.8146C2.81868 16.9514 3.04792 17.0563 3.39377 16.9909L3.39482 16.9907L6.32714 16.4412C6.44132 16.4186 6.61725 16.3506 6.80388 16.2411C6.99309 16.1301 7.13542 16.0104 7.20667 15.9247L7.21483 15.9149L14.6981 7.22495C15.3076 6.51861 15.6462 5.87495 15.6855 5.25896C15.7222 4.6825 15.5062 3.93725 14.5894 2.9857C13.6776 2.04471 12.99 1.85191 12.4676 1.9252C11.9094 2.00352 11.3422 2.40974 10.7331 3.11562Z" fill="#616161"/>
<path fill-rule="evenodd" clip-rule="evenodd" d="M8.88243 3.30891C9.25547 3.24515 9.605 3.52524 9.66312 3.93452C10.0069 6.35514 11.7975 8.20775 14.0237 8.45375C14.3994 8.49526 14.6732 8.863 14.6354 9.27513C14.5975 9.68726 14.2623 9.98771 13.8867 9.9462C11.0451 9.6322 8.75233 7.26481 8.3122 4.16543C8.25408 3.75615 8.50938 3.37268 8.88243 3.30891Z" fill="#616161"/>
<path fill-rule="evenodd" clip-rule="evenodd" d="M0.201172 21.0001C0.201172 20.5858 0.507233 20.2501 0.884779 20.2501H17.2914C17.6689 20.2501 17.975 20.5858 17.975 21.0001C17.975 21.4143 17.6689 21.7501 17.2914 21.7501H0.884779C0.507233 21.7501 0.201172 21.4143 0.201172 21.0001Z" fill="#616161"/>
</svg>
