<svg width="59" height="59" viewBox="0 0 59 59" fill="none" xmlns="http://www.w3.org/2000/svg">
<path d="M29.3419 25.9145C20.7185 25.9145 13.7422 24.6023 8.41281 21.9778C3.08347 19.3533 0.418793 16.3806 0.418793 13.0598C0.418793 9.68548 3.08347 6.69944 8.41281 4.10172C13.7422 1.504 20.7185 0.205139 29.3419 0.205139C37.9652 0.205139 44.9416 1.504 50.2709 4.10172C55.6003 6.69944 58.2649 9.68548 58.2649 13.0598C58.2649 16.3806 55.6003 19.3533 50.2709 21.9778C44.9416 24.6023 37.9652 25.9145 29.3419 25.9145ZM29.3419 41.9829C21.5219 41.9829 14.7464 40.8046 9.01537 38.4479C3.28432 36.0912 0.418793 33.2524 0.418793 29.9316V21.8974C0.418793 23.9863 1.42307 25.794 3.43161 27.3205C5.44016 28.847 7.93076 30.1057 10.9034 31.0966C13.8761 32.0875 17.0362 32.8106 20.3837 33.2658C23.7313 33.7211 26.7174 33.9487 29.3419 33.9487C32.0199 33.9487 35.0194 33.7211 38.3402 33.2658C41.661 32.8106 44.8077 32.1009 47.7803 31.1368C50.753 30.1727 53.2436 28.9274 55.2521 27.4009C57.2607 25.8744 58.2649 24.0399 58.2649 21.8974V29.9316C58.2649 33.2524 55.3994 36.0912 49.6684 38.4479C43.9373 40.8046 37.1618 41.9829 29.3419 41.9829ZM29.3419 58.0513C21.5219 58.0513 14.7464 56.8729 9.01537 54.5163C3.28432 52.1596 0.418793 49.3208 0.418793 46V37.9658C0.418793 40.0547 1.42307 41.8624 3.43161 43.3889C5.44016 44.9154 7.93076 46.1741 10.9034 47.165C13.8761 48.1558 17.0362 48.8789 20.3837 49.3342C23.7313 49.7895 26.7174 50.0171 29.3419 50.0171C32.0199 50.0171 35.0194 49.7895 38.3402 49.3342C41.661 48.8789 44.8077 48.1692 47.7803 47.2051C50.753 46.241 53.2436 44.9957 55.2521 43.4692C57.2607 41.9427 58.2649 40.1083 58.2649 37.9658V46C58.2649 49.3208 55.3994 52.1596 49.6684 54.5163C43.9373 56.8729 37.1618 58.0513 29.3419 58.0513Z" fill="#616161"/>
</svg>
