<svg width="19" height="22" viewBox="0 0 19 22" fill="none" xmlns="http://www.w3.org/2000/svg">
<path fill-rule="evenodd" clip-rule="evenodd" d="M3.22391 4.03367C5.05101 3.83122 6.87833 3.72998 8.70578 3.72998C11.7732 3.72998 14.8492 3.90127 17.9062 4.23364C18.2819 4.27448 18.5563 4.64175 18.519 5.05394C18.4818 5.46614 18.1471 5.76717 17.7714 5.72632C14.7579 5.39869 11.727 5.22998 8.70578 5.22998C6.92411 5.22998 5.14232 5.3287 3.36031 5.52618L3.35831 5.5264L1.49889 5.7264C1.12315 5.76682 0.788684 5.4654 0.751847 5.05316C0.715009 4.64092 0.989747 4.27397 1.36549 4.23356L3.22391 4.03367Z" fill="#616161"/>
<path fill-rule="evenodd" clip-rule="evenodd" d="M7.32007 2.78456L7.1196 4.09421C7.05707 4.50271 6.70455 4.77824 6.33222 4.70964C5.95988 4.64104 5.70874 4.25428 5.77127 3.84578L5.97179 2.53579C5.9753 2.51297 5.9789 2.48908 5.98255 2.46487C6.04532 2.04899 6.13739 1.43887 6.50808 0.977691C6.94018 0.440117 7.59945 0.25 8.44157 0.25H10.8296C11.682 0.25 12.3406 0.455399 12.7701 0.998446C13.1413 1.46776 13.2311 2.08006 13.291 2.48891C13.294 2.5088 13.2968 2.52822 13.2996 2.54711L13.4998 3.84486C13.5628 4.25326 13.3121 4.64037 12.9398 4.70949C12.5676 4.7786 12.2147 4.50355 12.1517 4.09514L11.9505 2.79069C11.8743 2.27767 11.8261 2.09352 11.7375 1.98155C11.6885 1.9196 11.5177 1.75 10.8296 1.75H8.44157C7.74329 1.75 7.57767 1.91488 7.53352 1.96981C7.44956 2.07427 7.40218 2.24976 7.32007 2.78456Z" fill="#616161"/>
<path fill-rule="evenodd" clip-rule="evenodd" d="M15.9232 7.39154C16.2999 7.41822 16.5856 7.77494 16.5613 8.18829L15.9686 18.2624L15.9674 18.2814C15.9434 18.6576 15.917 19.0714 15.8463 19.4563C15.773 19.8555 15.6439 20.2768 15.3822 20.6506C14.8342 21.4333 13.9017 21.75 12.5613 21.75H6.70966C5.36927 21.75 4.43678 21.4333 3.88882 20.6506C3.62713 20.2768 3.49799 19.8555 3.42471 19.4563C3.35404 19.0714 3.32764 18.6576 3.30362 18.2814L3.30215 18.2583L2.7097 8.18829C2.68538 7.77494 2.97109 7.41822 3.34785 7.39154C3.72461 7.36486 4.04975 7.67832 4.07407 8.09167L4.66628 18.1576C4.66632 18.1582 4.66637 18.1589 4.66641 18.1596C4.69214 18.5624 4.71391 18.8818 4.76501 19.1602C4.81479 19.4313 4.88388 19.6094 4.97311 19.7369C5.127 19.9567 5.50702 20.25 6.70966 20.25H12.5613C13.764 20.25 14.144 19.9567 14.2979 19.7369C14.3871 19.6094 14.4562 19.4313 14.506 19.1602C14.5571 18.8818 14.5789 18.5624 14.6046 18.1596C14.6046 18.1589 14.6047 18.1582 14.6047 18.1576L15.1969 8.09167C15.2212 7.67832 15.5464 7.36486 15.9232 7.39154Z" fill="#616161"/>
<path fill-rule="evenodd" clip-rule="evenodd" d="M7.42969 15.5C7.42969 15.0858 7.73575 14.75 8.1133 14.75H11.1485C11.5261 14.75 11.8321 15.0858 11.8321 15.5C11.8321 15.9142 11.5261 16.25 11.1485 16.25H8.1133C7.73575 16.25 7.42969 15.9142 7.42969 15.5Z" fill="#616161"/>
<path fill-rule="evenodd" clip-rule="evenodd" d="M6.6731 11.5C6.6731 11.0858 6.97916 10.75 7.3567 10.75H11.9141C12.2916 10.75 12.5977 11.0858 12.5977 11.5C12.5977 11.9142 12.2916 12.25 11.9141 12.25H7.3567C6.97916 12.25 6.6731 11.9142 6.6731 11.5Z" fill="#616161"/>
</svg>
