<svg width="65" height="54" viewBox="0 0 65 54" fill="none" xmlns="http://www.w3.org/2000/svg">
<path d="M47.3658 53.4444L46.5624 48.1419C45.6519 47.8741 44.7279 47.4857 43.7906 46.9769C42.8533 46.4681 42.0633 45.8923 41.4205 45.2496L37.0017 46.2137L34.9932 42.8393L38.7692 39.3043C38.6621 38.8222 38.6086 38.1527 38.6086 37.2957C38.6086 36.4387 38.6621 35.7692 38.7692 35.2872L34.9932 31.7521L37.0017 28.3778L41.4205 29.3419C42.0633 28.6991 42.8533 28.1234 43.7906 27.6145C44.7279 27.1057 45.6519 26.7174 46.5624 26.4496L47.3658 21.147H51.7043L52.5077 26.4496C53.4182 26.7174 54.3422 27.1057 55.2795 27.6145C56.2168 28.1234 57.0068 28.6991 57.6496 29.3419L62.0684 28.3778L64.0769 31.7521L60.3009 35.2872C60.408 35.7692 60.4615 36.4387 60.4615 37.2957C60.4615 38.1527 60.408 38.8222 60.3009 39.3043L64.0769 42.8393L62.0684 46.2137L57.6496 45.2496C57.0068 45.8923 56.2168 46.4681 55.2795 46.9769C54.3422 47.4857 53.4182 47.8741 52.5077 48.1419L51.7043 53.4444H47.3658ZM0.205132 49.9094V42.3573C0.205132 40.4826 0.673793 38.7954 1.61111 37.2957C2.54844 35.796 3.90086 34.6444 5.66838 33.841C9.52479 32.1271 13.1 30.8952 16.394 30.1453C19.688 29.3954 22.8615 29.0205 25.9145 29.0205H27.7624C26.6376 31.7521 26.1288 35.3541 26.2359 39.8265C26.343 44.2989 27.2536 47.6598 28.9675 49.9094H0.205132ZM49.535 43.7231C51.4633 43.7231 53.0165 43.1339 54.1949 41.9555C55.3732 40.7772 55.9624 39.2239 55.9624 37.2957C55.9624 35.3675 55.3732 33.8142 54.1949 32.6359C53.0165 31.4575 51.4633 30.8684 49.535 30.8684C47.6068 30.8684 46.0536 31.4575 44.8752 32.6359C43.6969 33.8142 43.1077 35.3675 43.1077 37.2957C43.1077 39.2239 43.6969 40.7772 44.8752 41.9555C46.0536 43.1339 47.6068 43.7231 49.535 43.7231ZM25.9145 24.1197C22.3795 24.1197 19.4872 22.9949 17.2376 20.7453C14.988 18.4957 13.8633 15.6034 13.8633 12.0684C13.8633 8.53333 14.988 5.64102 17.2376 3.39145C19.4872 1.14188 22.3795 0.0170898 25.9145 0.0170898C29.4496 0.0170898 32.3419 1.14188 34.5915 3.39145C36.841 5.64102 37.9658 8.53333 37.9658 12.0684C37.9658 15.6034 36.841 18.4957 34.5915 20.7453C32.3419 22.9949 29.4496 24.1197 25.9145 24.1197Z" fill="#616161"/>
</svg>
